<!DOCTYPE svg PUBLIC "-//W3C//DTD SVG 1.1//EN" "http://www.w3.org/Graphics/SVG/1.1/DTD/svg11.dtd">
<!-- Uploaded to: SVG Repo, www.svgrepo.com, Transformed by: SVG Repo Mixer Tools -->
<svg fill="#613583" height="800px" width="800px" version="1.1" id="Capa_1" xmlns="http://www.w3.org/2000/svg" xmlns:xlink="http://www.w3.org/1999/xlink" viewBox="-61.68 -61.68 597.85 597.85" xml:space="preserve" stroke="#613583" stroke-width="0.00474487">
<g id="SVGRepo_bgCarrier" stroke-width="0">
<path transform="translate(-61.68, -61.68), scale(18.6828125)" d="M16,29.457288386566297C18.47801527624357,29.122754096948423,20.636684757381733,27.835985049049167,22.68300021105161,26.39895131099759C24.65693207999624,25.012749253440212,26.324098921533015,23.34249937942307,27.611731862319367,21.30290025768041C29.058836488948728,19.01069940443064,30.71602756627913,16.61193442722825,30.570599607118513,13.905064046004673C30.42109697272682,11.122351180572668,28.693089298456627,8.687877473750808,26.822984100002532,6.621830892512664C24.980932716855538,4.586777481740992,22.728378318038537,2.7846115322685674,20.03332861008335,2.2637442223922246C17.439326667036596,1.7624062285509514,14.9396696086669,3.0158408465371247,12.429510872934845,3.840030743361366C10.00075225863722,4.637493582357943,7.1443772524288125,4.952631823840843,5.612101809908559,6.998834979530608C4.096644100972333,9.022579706026608,4.795567048781327,11.837696913773847,4.555816762338171,14.354574857923112C4.329283548960943,16.732701102629775,3.6659662020466066,19.05104119829716,4.243229689143597,21.36913709773494C4.8986180088600015,24.000956033857527,5.812714481022496,26.837567262407074,8.047200602064285,28.374797413368782C10.296918290888861,29.922506226525627,13.293865159266534,29.822619022431983,16,29.457288386566297" fill="#7ed0ec" strokewidth="0"/>
</g>
<g id="SVGRepo_tracerCarrier" stroke-linecap="round" stroke-linejoin="round"/>
<g id="SVGRepo_iconCarrier"> <g> <path d="M32.744,317.041v26.016h63v-24.87h14.86v-26.102h253.28v26.102h14.86v24.87h63V317.04 c10.144-3.19,17.522-12.681,17.522-23.865V78.604c0-18.844-15.33-34.174-34.174-34.174H49.395 c-18.844,0-34.174,15.33-34.174,34.174v214.571C15.221,304.359,22.6,313.851,32.744,317.041z M81.744,329.057h-35v-10.87h35 V329.057z M110.604,278.085v-83.044c0-1.659,1.351-3.01,3.01-3.01h247.259c1.66,0,3.011,1.351,3.011,3.01v83.044H110.604z M392.744,329.057v-10.87h35v10.87H392.744z M29.221,78.604c0-11.124,9.05-20.174,20.174-20.174h375.698 c11.124,0,20.174,9.05,20.174,20.174v214.571c0,6.071-4.938,11.011-11.01,11.011h-56.373V195.041c0-9.379-7.631-17.01-17.011-17.01 H113.614c-9.379,0-17.01,7.631-17.01,17.01v109.146H40.231c-6.071,0-11.01-4.939-11.01-11.011V78.604z"/> <path d="M466.103,375.041v-23.539H8.385v23.539H0v39.877c0,8.348,6.791,15.139,15.139,15.139h444.21 c8.348,0,15.139-6.791,15.139-15.139v-39.877H466.103z M22.385,365.502h429.718v9.539H22.385V365.502z M460.487,414.918 c0,0.628-0.511,1.139-1.139,1.139H15.139c-0.628,0-1.139-0.511-1.139-1.139v-25.877h446.487V414.918z"/> </g> </g>
</svg>